<svg width="186" height="54" viewBox="0 0 186 54" fill="none" xmlns="http://www.w3.org/2000/svg">
<path d="M44.9741 4.23908C46.1148 2.42225 48.1363 1.21436 50.4398 1.21436C54.0013 1.21436 56.8885 4.10182 56.8885 7.66336C56.8885 9.15526 56.3819 10.5291 55.5314 11.6217L55.5516 11.7093C59.6954 16.0143 62.1708 21.4618 62.1708 27.386C62.1708 41.3202 48.4772 52.6162 31.5857 52.6162C14.6936 52.6162 1 41.3202 1 27.386C1 21.466 3.47144 16.0225 7.60972 11.719L7.58327 11.6898C6.7325 10.5972 6.22563 9.22364 6.22563 7.73149C6.22563 4.16996 9.1131 1.28274 12.6746 1.28274C14.9781 1.28274 16.9996 2.49038 18.1404 4.30721" fill="#F8CB64"/>
<path d="M44.9741 4.23908C46.1148 2.42225 48.1363 1.21436 50.4398 1.21436C54.0013 1.21436 56.8885 4.10182 56.8885 7.66336C56.8885 9.15526 56.3819 10.5291 55.5314 11.6217L55.5516 11.7093C59.6954 16.0143 62.1708 21.4618 62.1708 27.386C62.1708 41.3202 48.4772 52.6162 31.5857 52.6162C14.6936 52.6162 1 41.3202 1 27.386C1 21.466 3.47144 16.0225 7.60972 11.719L7.58327 11.6898C6.7325 10.5972 6.22563 9.22364 6.22563 7.73149C6.22563 4.16996 9.1131 1.28274 12.6746 1.28274C14.9781 1.28274 16.9996 2.49038 18.1404 4.30721" stroke="black" stroke-width="1.21713" stroke-miterlimit="10" stroke-linecap="round" stroke-linejoin="round"/>
<path d="M34.672 30.6183C34.672 31.4893 33.26 32.0938 31.518 32.0938C29.7763 32.0938 28.3643 31.4893 28.3643 30.6183C28.3643 29.7476 29.7763 29.1429 31.518 29.1429C33.26 29.1429 34.672 29.7476 34.672 30.6183Z" fill="black"/>
<path d="M34.672 30.6183C34.672 31.4893 33.26 32.0938 31.518 32.0938C29.7763 32.0938 28.3643 31.4893 28.3643 30.6183C28.3643 29.7476 29.7763 29.1429 31.518 29.1429C33.26 29.1429 34.672 29.7476 34.672 30.6183Z" stroke="black" stroke-width="1.05142" stroke-miterlimit="10" stroke-linecap="round" stroke-linejoin="round"/>
<path d="M36.8831 36.4071C36.8831 36.4071 35.666 37.8017 33.8656 37.0156C32.5736 36.4101 31.8284 35.1815 31.6038 34.1618C31.5644 33.9824 31.5347 33.8097 31.5122 33.6477H31.5125C31.4968 33.8097 31.4711 33.9824 31.4316 34.1618C31.207 35.1815 30.4618 36.4101 29.1698 37.0156C27.3695 37.8017 26.1523 36.4071 26.1523 36.4071" stroke="black" stroke-width="1.21713" stroke-miterlimit="10" stroke-linecap="round" stroke-linejoin="round"/>
<path d="M31.4961 32.3996L31.5128 33.6357" stroke="black" stroke-width="1.21713" stroke-miterlimit="10" stroke-linejoin="round"/>
<path d="M20.6255 27.9138C20.6255 29.0995 19.6642 30.0605 18.4785 30.0605C17.2931 30.0605 16.332 29.0995 16.332 27.9138C16.332 26.7281 17.2931 25.767 18.4785 25.767C19.6642 25.767 20.6255 26.7281 20.6255 27.9138Z" fill="white" stroke="black" stroke-width="1.21713" stroke-miterlimit="10" stroke-linecap="round" stroke-linejoin="round"/>
<path d="M47.0142 27.9128C47.0142 29.0985 46.0531 30.0596 44.8675 30.0596C43.6818 30.0596 42.7207 29.0985 42.7207 27.9128C42.7207 26.7271 43.6818 25.7661 44.8675 25.7661C46.0531 25.7661 47.0142 26.7271 47.0142 27.9128Z" fill="white" stroke="black" stroke-width="1.21713" stroke-miterlimit="10" stroke-linecap="round" stroke-linejoin="round"/>
<path d="M61.1764 32.3637C59.937 32.3862 57.5814 32.4773 57.5814 32.4773C57.5814 32.4773 56.098 32.4815 55.5529 32.8556C54.8302 33.1596 54.6525 33.7366 54.6525 33.7366C54.6525 33.7366 54.5132 34.3515 54.9949 34.7633C55.4768 35.1756 55.9585 35.7017 57.7651 36.2784C58.394 36.3954 59.1441 36.391 59.8352 36.3398" fill="black"/>
<path d="M59.1912 37.6163C57.421 37.7855 56.884 37.8319 56.884 37.8319L55.025 38.045C55.025 38.045 54.8435 38.0752 54.7607 38.1087C54.4974 38.2142 53.9037 38.5022 53.537 39.0615C53.0551 39.7967 53.9935 40.494 53.9935 40.494C53.9935 40.494 54.7829 41.1648 56.7614 41.377" fill="black"/>
<path d="M2.08105 33.1088C3.32039 33.1313 5.67629 33.2221 5.67629 33.2221C5.67629 33.2221 7.1597 33.2266 7.70475 33.6005C8.42749 33.9047 8.60493 34.4817 8.60493 34.4817C8.60493 34.4817 8.74419 35.0964 8.26277 35.5084C7.78087 35.9207 7.29896 36.4465 5.49261 37.0235C4.8637 37.1406 4.11351 37.1361 3.42247 37.0849" fill="black"/>
<path d="M4.06543 38.3624C5.83534 38.5313 6.37266 38.5777 6.37266 38.5777L8.23166 38.7911C8.23166 38.7911 8.4131 38.8213 8.4957 38.8547C8.75899 38.9603 9.35296 39.2483 9.71957 39.8076C10.2012 40.5428 9.26312 41.2401 9.26312 41.2401C9.26312 41.2401 8.47374 41.9107 6.49494 42.123" fill="black"/>
<path d="M16.4922 5.43717C20.9457 3.34857 26.0969 2.1559 31.5859 2.1559C37.1467 2.1559 42.3608 3.38001 46.854 5.51953" stroke="black" stroke-width="1.21713" stroke-miterlimit="10" stroke-linecap="round"/>
<path d="M11.0381 5.03458C11.0381 5.03458 12.1032 6.12493 11.6465 8.02637" stroke="black" stroke-width="1.21713" stroke-miterlimit="10" stroke-linecap="round" stroke-linejoin="round"/>
<path d="M52.0767 4.92326C52.0767 4.92326 51.0118 6.01361 51.4682 7.91504" stroke="black" stroke-width="1.21713" stroke-miterlimit="10" stroke-linecap="round" stroke-linejoin="round"/>
<path d="M31.5865 12.7549C33.6084 12.7551 35.6426 12.7379 36.4515 12.7027C36.9469 12.681 37.4458 12.659 37.9292 12.5485C38.4126 12.4377 38.885 12.2315 39.2409 11.8864C39.3619 11.7686 39.4702 11.6333 39.5331 11.4766C39.7026 11.0548 39.5042 10.554 39.165 10.251C38.8261 9.94827 38.3751 9.70445 37.9324 9.60163C36.7966 9.33734 34.5036 9.4202 34.4964 9.34408C34.4964 9.34408 34.9239 9.16489 35.152 9.12546C35.4118 9.08029 35.6771 9.08054 35.9404 9.08129C36.5214 9.08253 36.5952 9.08353 37.1762 9.08478C37.7255 9.08603 38.6863 9.08628 39.2202 8.9575C39.754 8.82873 40.2723 8.55595 40.5898 8.10798C40.6564 8.0144 40.7136 7.91357 40.7502 7.80451C40.881 7.41369 40.754 6.96024 40.4967 6.63855C40.0567 6.08901 39.6297 6.09574 39.0085 5.96722C38.7165 5.90682 38.3739 5.84917 37.6803 5.76831C37.0864 5.69894 36.3427 5.63879 36.0297 5.61433C36.02 5.61358 35.756 5.48431 35.7589 5.44663C35.7597 5.43739 35.7911 5.42217 35.8036 5.42092C36.6963 5.35029 38.5279 5.53946 40.2451 5.67573C40.9704 5.73313 42.0892 5.55968 42.5306 5.48905C42.6345 5.47258 43.0315 5.3448 43.1286 5.29888C43.2581 5.23724 43.6854 4.94675 43.8044 4.74685L43.9334 4.38922C42.7208 3.9979 41.4001 3.63204 39.9771 3.32158C36.8822 2.64651 34.0577 2.39719 31.6451 2.35851H31.5276C29.115 2.39719 26.2905 2.64651 23.1956 3.32158C21.7726 3.63204 20.4519 3.9979 19.2393 4.38922L19.3683 4.74685C19.4873 4.94675 19.9148 5.23724 20.0444 5.29888C20.1412 5.3448 20.5382 5.47258 20.6421 5.48905C21.0835 5.55968 22.2023 5.73313 22.9278 5.67573C24.6448 5.53946 26.4764 5.35029 27.3691 5.42092C27.3816 5.42217 27.413 5.43739 27.4138 5.44663C27.4167 5.48431 27.1527 5.61358 27.143 5.61433C26.83 5.63879 26.0863 5.69894 25.4924 5.76831C24.7988 5.84917 24.4562 5.90682 24.1642 5.96722C23.5433 6.09574 23.1162 6.08901 22.6763 6.63855C22.4187 6.96024 22.2919 7.41369 22.4225 7.80451C22.4591 7.91357 22.5163 8.0144 22.5829 8.10798C22.9006 8.55595 23.419 8.82873 23.9528 8.9575C24.4864 9.08628 25.4472 9.08603 25.9965 9.08478C26.5775 9.08353 26.6513 9.08253 27.2323 9.08129C27.4959 9.08054 27.7609 9.08029 28.0207 9.12546C28.2488 9.16489 28.6765 9.34408 28.6765 9.34408C28.6691 9.4202 26.3761 9.33734 25.2403 9.60163C24.7978 9.70445 24.3466 9.94827 24.0079 10.251C23.6688 10.554 23.4704 11.0548 23.6396 11.4766C23.7027 11.6333 23.8108 11.7686 23.9318 11.8864C24.2877 12.2315 24.7601 12.4377 25.2435 12.5485C25.7269 12.659 26.2258 12.681 26.7212 12.7027C27.53 12.7379 29.5643 12.7551 31.5865 12.7549Z" fill="black"/>
<path d="M77.4832 24C77.0874 24 76.7433 23.8538 76.4508 23.5613C76.1755 23.2688 76.0379 22.9246 76.0379 22.5289V6.63091C76.0379 6.23518 76.1755 5.89107 76.4508 5.59857C76.7433 5.30608 77.0874 5.15983 77.4832 5.15983H78.18C78.5757 5.15983 78.9198 5.30608 79.2123 5.59857C79.5048 5.89107 79.6511 6.23518 79.6511 6.63091V12.4894C79.6511 12.6271 79.7199 12.6959 79.8575 12.6959H86.3097C86.4473 12.6959 86.5161 12.6271 86.5161 12.4894V6.63091C86.5161 6.23518 86.6624 5.89107 86.9549 5.59857C87.2474 5.30608 87.5915 5.15983 87.9872 5.15983H88.684C89.0798 5.15983 89.4153 5.30608 89.6906 5.59857C89.9831 5.89107 90.1293 6.23518 90.1293 6.63091V22.5289C90.1293 22.9246 89.9831 23.2688 89.6906 23.5613C89.4153 23.8538 89.0798 24 88.684 24H87.9872C87.5915 24 87.2474 23.8538 86.9549 23.5613C86.6624 23.2688 86.5161 22.9246 86.5161 22.5289V15.6897C86.5161 15.5348 86.4473 15.4574 86.3097 15.4574H79.8575C79.7199 15.4574 79.6511 15.5348 79.6511 15.6897V22.5289C79.6511 22.9246 79.5048 23.2688 79.2123 23.5613C78.9198 23.8538 78.5757 24 78.18 24H77.4832ZM95.6807 24C95.285 24 94.9409 23.8538 94.6484 23.5613C94.3559 23.2688 94.2097 22.9246 94.2097 22.5289V6.63091C94.2097 6.23518 94.3559 5.89107 94.6484 5.59857C94.9409 5.30608 95.285 5.15983 95.6807 5.15983H104.456C104.851 5.15983 105.195 5.30608 105.488 5.59857C105.78 5.89107 105.927 6.23518 105.927 6.63091C105.927 7.02664 105.78 7.37076 105.488 7.66325C105.195 7.93854 104.851 8.07619 104.456 8.07619H98.0551C97.9003 8.07619 97.8228 8.15361 97.8228 8.30846V12.4636C97.8228 12.6185 97.9003 12.6959 98.0551 12.6959H104.017C104.413 12.6959 104.74 12.8335 104.998 13.1088C105.273 13.3841 105.411 13.711 105.411 14.0896C105.411 14.4681 105.273 14.795 104.998 15.0703C104.74 15.3284 104.413 15.4574 104.017 15.4574H98.0551C97.9003 15.4574 97.8228 15.5348 97.8228 15.6897V20.8514C97.8228 21.0062 97.9003 21.0836 98.0551 21.0836H104.456C104.851 21.0836 105.195 21.2299 105.488 21.5224C105.78 21.7977 105.927 22.1332 105.927 22.5289C105.927 22.9246 105.78 23.2688 105.488 23.5613C105.195 23.8538 104.851 24 104.456 24H95.6807ZM116.213 8.36008L113.942 16.4639C113.925 16.5155 113.933 16.5672 113.968 16.6188C114.002 16.6704 114.045 16.6962 114.097 16.6962H118.381C118.433 16.6962 118.476 16.6704 118.51 16.6188C118.544 16.5672 118.553 16.5155 118.536 16.4639L116.265 8.36008C116.265 8.34287 116.256 8.33427 116.239 8.33427C116.222 8.33427 116.213 8.34287 116.213 8.36008ZM109.529 24C109.167 24 108.883 23.8538 108.677 23.5613C108.47 23.2688 108.427 22.9505 108.548 22.6063L113.89 6.55349C114.045 6.14055 114.295 5.80504 114.639 5.54696C115 5.28887 115.396 5.15983 115.826 5.15983H116.755C117.202 5.15983 117.598 5.28887 117.942 5.54696C118.303 5.80504 118.553 6.14055 118.691 6.55349L124.033 22.6063C124.153 22.9505 124.11 23.2688 123.904 23.5613C123.697 23.8538 123.414 24 123.052 24H122.123C121.71 24 121.323 23.871 120.962 23.6129C120.618 23.3376 120.385 22.9935 120.265 22.5805L119.439 19.6642C119.422 19.5265 119.327 19.4577 119.155 19.4577H113.322C113.168 19.4577 113.073 19.5265 113.039 19.6642L112.213 22.5805C112.109 22.9935 111.877 23.3376 111.516 23.6129C111.172 23.871 110.785 24 110.354 24H109.529ZM128.042 24C127.646 24 127.302 23.8538 127.009 23.5613C126.734 23.2688 126.596 22.9246 126.596 22.5289V6.63091C126.596 6.23518 126.734 5.89107 127.009 5.59857C127.302 5.30608 127.646 5.15983 128.042 5.15983H128.867C129.263 5.15983 129.607 5.30608 129.9 5.59857C130.192 5.89107 130.338 6.23518 130.338 6.63091V20.7739C130.338 20.9288 130.407 21.0062 130.545 21.0062H137.178C137.573 21.0062 137.909 21.1525 138.184 21.445C138.477 21.7203 138.623 22.0558 138.623 22.4515V22.5289C138.623 22.9246 138.477 23.2688 138.184 23.5613C137.909 23.8538 137.573 24 137.178 24H128.042ZM144.033 24C143.638 24 143.293 23.8538 143.001 23.5613C142.708 23.2688 142.562 22.9246 142.562 22.5289V6.63091C142.562 6.23518 142.708 5.89107 143.001 5.59857C143.293 5.30608 143.638 5.15983 144.033 5.15983H145.066C145.461 5.15983 145.805 5.30608 146.098 5.59857C146.39 5.89107 146.537 6.23518 146.537 6.63091V22.5289C146.537 22.9246 146.39 23.2688 146.098 23.5613C145.805 23.8538 145.461 24 145.066 24H144.033ZM152.565 24C152.169 24 151.825 23.8538 151.532 23.5613C151.257 23.2688 151.119 22.9246 151.119 22.5289V6.63091C151.119 6.23518 151.257 5.89107 151.532 5.59857C151.825 5.30608 152.169 5.15983 152.565 5.15983H153.132C154.113 5.15983 154.836 5.58997 155.3 6.45025L161.675 17.9608C161.675 17.978 161.684 17.9866 161.701 17.9866C161.718 17.9866 161.727 17.978 161.727 17.9608V6.63091C161.727 6.23518 161.873 5.89107 162.165 5.59857C162.458 5.30608 162.802 5.15983 163.198 5.15983H163.765C164.161 5.15983 164.497 5.30608 164.772 5.59857C165.064 5.89107 165.211 6.23518 165.211 6.63091V22.5289C165.211 22.9246 165.064 23.2688 164.772 23.5613C164.497 23.8538 164.161 24 163.765 24H163.198C162.217 24 161.494 23.5699 161.03 22.7096L154.655 11.199C154.655 11.1818 154.646 11.1732 154.629 11.1732C154.612 11.1732 154.603 11.1818 154.603 11.199V22.5289C154.603 22.9246 154.457 23.2688 154.165 23.5613C153.872 23.8538 153.528 24 153.132 24H152.565ZM177.421 24.2581C174.651 24.2581 172.405 23.3978 170.685 21.6772C168.981 19.9395 168.13 17.5737 168.13 14.5799C168.13 11.5517 168.981 9.18595 170.685 7.48259C172.388 5.76203 174.745 4.90175 177.756 4.90175C178.995 4.90175 180.122 4.98778 181.137 5.15983C181.55 5.22865 181.894 5.43512 182.169 5.77923C182.445 6.10614 182.582 6.48466 182.582 6.91481V7.01804C182.582 7.37936 182.436 7.67185 182.144 7.89553C181.851 8.1192 181.524 8.18802 181.163 8.10199C180.148 7.87832 179.141 7.76649 178.143 7.76649C176.061 7.76649 174.479 8.34287 173.395 9.49565C172.328 10.6312 171.794 12.326 171.794 14.5799C171.794 16.765 172.319 18.4512 173.369 19.6384C174.436 20.8084 175.872 21.3933 177.679 21.3933C178.419 21.3933 179.15 21.2901 179.873 21.0836C180.01 21.0492 180.079 20.9546 180.079 20.7998V15.6897C180.079 15.5348 180.01 15.4574 179.873 15.4574H176.646C176.268 15.4574 175.941 15.3284 175.666 15.0703C175.408 14.795 175.279 14.4681 175.279 14.0896C175.279 13.6938 175.408 13.3669 175.666 13.1088C175.941 12.8335 176.268 12.6959 176.646 12.6959H182.066C182.462 12.6959 182.806 12.8421 183.099 13.1346C183.391 13.4271 183.537 13.7713 183.537 14.167V21.6772C183.537 22.1246 183.408 22.5289 183.15 22.8902C182.892 23.2516 182.557 23.4924 182.144 23.6129C180.681 24.043 179.107 24.2581 177.421 24.2581ZM76.8638 33.1536C76.468 33.1536 76.1239 33.016 75.8314 32.7407C75.5389 32.4482 75.3927 32.1041 75.3927 31.7083V31.6309C75.3927 31.2352 75.5389 30.8911 75.8314 30.5986C76.1239 30.3061 76.468 30.1598 76.8638 30.1598H87.8582C88.2539 30.1598 88.598 30.3061 88.8905 30.5986C89.183 30.8911 89.3292 31.2352 89.3292 31.6309V31.7083C89.3292 32.1041 89.183 32.4482 88.8905 32.7407C88.598 33.016 88.2539 33.1536 87.8582 33.1536H84.3998C84.2622 33.1536 84.1934 33.231 84.1934 33.3859V47.5289C84.1934 47.9246 84.0471 48.2688 83.7546 48.5613C83.4621 48.8538 83.118 49 82.7223 49H81.9996C81.6039 49 81.2598 48.8538 80.9673 48.5613C80.6748 48.2688 80.5286 47.9246 80.5286 47.5289V33.3859C80.5286 33.231 80.4597 33.1536 80.3221 33.1536H76.8638ZM98.6316 49C98.2358 49 97.8917 48.8538 97.5992 48.5613C97.3067 48.2688 97.1605 47.9246 97.1605 47.5289V31.6309C97.1605 31.2352 97.3067 30.8911 97.5992 30.5986C97.8917 30.3061 98.2358 30.1598 98.6316 30.1598H99.6639C100.06 30.1598 100.404 30.3061 100.696 30.5986C100.989 30.8911 101.135 31.2352 101.135 31.6309V47.5289C101.135 47.9246 100.989 48.2688 100.696 48.5613C100.404 48.8538 100.06 49 99.6639 49H98.6316ZM117.719 49.2581C114.948 49.2581 112.703 48.3978 110.983 46.6772C109.279 44.9395 108.427 42.5737 108.427 39.5799C108.427 36.5517 109.279 34.1859 110.983 32.4826C112.686 30.762 115.043 29.9017 118.054 29.9017C119.293 29.9017 120.42 29.9878 121.435 30.1598C121.848 30.2287 122.192 30.4351 122.467 30.7792C122.743 31.1061 122.88 31.4847 122.88 31.9148V32.018C122.88 32.3794 122.734 32.6719 122.441 32.8955C122.149 33.1192 121.822 33.188 121.461 33.102C120.446 32.8783 119.439 32.7665 118.441 32.7665C116.359 32.7665 114.776 33.3429 113.692 34.4957C112.626 35.6312 112.092 37.326 112.092 39.5799C112.092 41.765 112.617 43.4512 113.667 44.6384C114.733 45.8084 116.17 46.3933 117.977 46.3933C118.716 46.3933 119.448 46.2901 120.17 46.0836C120.308 46.0492 120.377 45.9546 120.377 45.7998V40.6897C120.377 40.5348 120.308 40.4574 120.17 40.4574H116.944C116.566 40.4574 116.239 40.3284 115.964 40.0703C115.705 39.795 115.576 39.4681 115.576 39.0896C115.576 38.6938 115.705 38.3669 115.964 38.1088C116.239 37.8335 116.566 37.6959 116.944 37.6959H122.364C122.76 37.6959 123.104 37.8421 123.396 38.1346C123.689 38.4271 123.835 38.7713 123.835 39.167V46.6772C123.835 47.1246 123.706 47.5289 123.448 47.8902C123.19 48.2516 122.854 48.4924 122.441 48.6129C120.979 49.043 119.405 49.2581 117.719 49.2581ZM133.128 49C132.732 49 132.388 48.8538 132.096 48.5613C131.803 48.2688 131.657 47.9246 131.657 47.5289V31.6309C131.657 31.2352 131.803 30.8911 132.096 30.5986C132.388 30.3061 132.732 30.1598 133.128 30.1598H141.903C142.299 30.1598 142.643 30.3061 142.935 30.5986C143.228 30.8911 143.374 31.2352 143.374 31.6309C143.374 32.0266 143.228 32.3708 142.935 32.6633C142.643 32.9385 142.299 33.0762 141.903 33.0762H135.503C135.348 33.0762 135.27 33.1536 135.27 33.3085V37.4636C135.27 37.6185 135.348 37.6959 135.503 37.6959H141.464C141.86 37.6959 142.187 37.8335 142.445 38.1088C142.72 38.3841 142.858 38.711 142.858 39.0896C142.858 39.4681 142.72 39.795 142.445 40.0703C142.187 40.3284 141.86 40.4574 141.464 40.4574H135.503C135.348 40.4574 135.27 40.5348 135.27 40.6897V45.8514C135.27 46.0062 135.348 46.0836 135.503 46.0836H141.903C142.299 46.0836 142.643 46.2299 142.935 46.5224C143.228 46.7977 143.374 47.1332 143.374 47.5289C143.374 47.9246 143.228 48.2688 142.935 48.5613C142.643 48.8538 142.299 49 141.903 49H133.128ZM154.615 33.102V38.7024C154.615 38.8401 154.693 38.9089 154.848 38.9089H156.138C159.201 38.9089 160.732 37.8163 160.732 35.6312C160.732 33.687 159.312 32.7149 156.474 32.7149C155.957 32.7149 155.415 32.7579 154.848 32.8439C154.693 32.8783 154.615 32.9643 154.615 33.102ZM152.525 49C152.129 49 151.785 48.8538 151.493 48.5613C151.2 48.2688 151.054 47.9246 151.054 47.5289V31.76C151.054 31.347 151.191 30.9771 151.467 30.6502C151.742 30.3233 152.086 30.1426 152.499 30.1082C153.962 29.9706 155.372 29.9017 156.732 29.9017C159.261 29.9017 161.153 30.3749 162.409 31.3212C163.666 32.2503 164.294 33.5665 164.294 35.2699C164.294 36.4915 163.958 37.5669 163.287 38.496C162.633 39.4251 161.747 40.0789 160.629 40.4574C160.612 40.4574 160.603 40.466 160.603 40.4832C160.603 40.5176 160.612 40.5348 160.629 40.5348C161.455 41.051 162.16 42.0661 162.745 43.5802L164.294 47.6322C164.414 47.9591 164.371 48.2688 164.164 48.5613C163.975 48.8538 163.709 49 163.364 49H162.564C162.117 49 161.713 48.8796 161.351 48.6387C160.99 48.3806 160.732 48.0451 160.577 47.6322L159.132 43.6577C158.822 42.8318 158.469 42.2898 158.074 42.0317C157.678 41.7736 156.998 41.6446 156.035 41.6446H154.848C154.693 41.6446 154.615 41.722 154.615 41.8769V47.5289C154.615 47.9246 154.469 48.2688 154.177 48.5613C153.901 48.8538 153.566 49 153.17 49H152.525ZM176.243 41.051C174.179 40.3628 172.682 39.5283 171.753 38.5476C170.841 37.5669 170.385 36.3797 170.385 34.986C170.385 33.4203 170.91 32.1815 171.959 31.2696C173.009 30.3577 174.48 29.9017 176.372 29.9017C177.973 29.9017 179.366 30.0824 180.553 30.4437C180.966 30.5642 181.293 30.8136 181.534 31.1922C181.792 31.5535 181.921 31.9578 181.921 32.4052V32.6374C181.921 32.9644 181.775 33.2224 181.483 33.4117C181.19 33.5838 180.889 33.6096 180.579 33.4891C179.289 32.9902 177.973 32.7407 176.631 32.7407C175.77 32.7407 175.116 32.9385 174.669 33.3343C174.222 33.73 173.998 34.2806 173.998 34.986C173.998 36.2248 174.807 37.1109 176.424 37.6443C178.747 38.3841 180.356 39.2272 181.25 40.1735C182.162 41.1198 182.618 42.3414 182.618 43.8383C182.618 47.4515 180.39 49.2581 175.934 49.2581C174.54 49.2581 173.275 49.043 172.14 48.6129C171.727 48.458 171.4 48.1913 171.159 47.8128C170.935 47.4343 170.824 47.0127 170.824 46.5482V46.2385C170.824 45.9116 170.961 45.6793 171.237 45.5417C171.512 45.3868 171.796 45.3782 172.088 45.5159C173.224 46.0836 174.42 46.3675 175.676 46.3675C177.861 46.3675 178.953 45.5417 178.953 43.8899C178.953 43.2189 178.747 42.6683 178.334 42.2382C177.921 41.7908 177.224 41.3951 176.243 41.051Z" fill="white"/>
</svg>
